<svg width="3157" height="346" viewBox="0 0 3157 346" fill="none" xmlns="http://www.w3.org/2000/svg">
<path fill-rule="evenodd" clip-rule="evenodd" d="M967.783 265.379C1797.24 224.67 1634.49 218.029 2398.95 327.945C3163.42 437.86 3156.85 0 3156.85 0H63.3372C63.3372 0 138.323 306.088 967.783 265.379Z" fill="url(#paint0_linear_3225_2763)"/>
<path fill-rule="evenodd" clip-rule="evenodd" d="M646.666 228.64C1420.85 187.867 1419.85 53.437 2133.37 163.526C2846.89 273.615 3098.9 0 3098.9 0H9.33716C9.33716 0 -127.519 269.414 646.666 228.64Z" fill="url(#paint1_linear_3225_2763)"/>
<path fill-rule="evenodd" clip-rule="evenodd" d="M644.115 170.002C1220.54 139.63 1262.91 40.4687 1710.66 56.7529C2158.4 73.0371 2415.9 0 2415.9 0H107.837C107.837 0 67.6926 200.374 644.115 170.002Z" fill="url(#paint2_linear_3225_2763)"/>
<defs>
<linearGradient id="paint0_linear_3225_2763" x1="666.443" y1="58.8369" x2="666.443" y2="350" gradientUnits="userSpaceOnUse">
<stop stop-color="#33333D"/>
<stop offset="1" stop-color="#3F5346"/>
</linearGradient>
<linearGradient id="paint1_linear_3225_2763" x1="514.1" y1="39.3366" x2="514.1" y2="234" gradientUnits="userSpaceOnUse">
<stop stop-color="#33333D"/>
<stop offset="1" stop-color="#507F52"/>
</linearGradient>
<linearGradient id="paint2_linear_3225_2763" x1="355.904" y1="0" x2="355.904" y2="174" gradientUnits="userSpaceOnUse">
<stop stop-color="#33333D"/>
<stop offset="1" stop-color="#5A9A5A"/>
</linearGradient>
</defs>
</svg>
