<svg width="2136" height="623" viewBox="0 0 2136 623" fill="none" xmlns="http://www.w3.org/2000/svg">
<ellipse cx="504.293" cy="251.732" rx="75.787" ry="22.6785" fill="url(#paint0_linear_3225_2700)"/>
<ellipse cx="504.293" cy="248.897" rx="75.787" ry="22.6785" fill="#252531"/>
<ellipse cx="1070.45" cy="194.468" rx="199.429" ry="63.4998" fill="url(#paint1_linear_3225_2700)"/>
<ellipse cx="1070.45" cy="186.53" rx="199.429" ry="63.4998" fill="#252531"/>
<ellipse cx="668.615" cy="155.677" rx="168.671" ry="54.7622" fill="url(#paint2_linear_3225_2700)"/>
<ellipse cx="668.615" cy="150.012" rx="168.671" ry="54.7622" fill="#252531"/>
<ellipse cx="597.956" cy="385.401" rx="213.106" ry="66.9312" fill="url(#paint3_linear_3225_2700)"/>
<ellipse cx="597.956" cy="378.476" rx="213.106" ry="66.9312" fill="#252531"/>
<ellipse cx="1922.11" cy="385.401" rx="213.106" ry="66.9312" fill="url(#paint4_linear_3225_2700)"/>
<ellipse cx="1922.11" cy="378.476" rx="213.106" ry="66.9312" fill="#252531"/>
<ellipse cx="213.106" cy="555.856" rx="213.106" ry="66.9312" fill="url(#paint5_linear_3225_2700)"/>
<ellipse cx="213.106" cy="550.931" rx="213.106" ry="66.9312" fill="#252531"/>
<ellipse cx="1387.95" cy="143.691" rx="94.2575" ry="28.9484" fill="url(#paint6_linear_3225_2700)"/>
<ellipse cx="1387.95" cy="140.072" rx="94.2575" ry="28.9484" fill="#252531"/>
<ellipse cx="1559.26" cy="592.567" rx="94.2575" ry="28.9484" fill="url(#paint7_linear_3225_2700)"/>
<ellipse cx="1559.26" cy="588.948" rx="94.2575" ry="28.9484" fill="#252531"/>
<path d="M1377.27 234.321C1431.12 234.321 1477.83 243.923 1500.96 257.968H1516.4V277.978C1516.4 302.088 1454.11 321.634 1377.27 321.634C1300.42 321.634 1238.13 302.088 1238.13 277.978V257.968H1253.57C1276.7 243.923 1323.41 234.321 1377.27 234.321Z" fill="url(#paint8_linear_3225_2700)"/>
<ellipse cx="1377.27" cy="257.969" rx="139.138" ry="43.6561" fill="#252531"/>
<path d="M1738.15 260C1753.06 260 1765.15 264.029 1765.15 269C1765.15 273.971 1753.06 278 1738.15 278C1723.24 278 1711.15 273.971 1711.15 269C1711.15 264.029 1723.24 260 1738.15 260ZM1815.08 210.186C1853.22 210.186 1884.15 220.136 1884.15 232.41C1884.15 244.685 1853.22 254.636 1815.08 254.636C1776.93 254.636 1746 244.685 1746 232.41C1746 220.136 1776.93 210.186 1815.08 210.186ZM1223.86 79.6387C1250.6 79.6387 1273.78 84.5274 1285.27 91.6768H1292.94V101.863C1292.94 114.138 1262.01 124.089 1223.86 124.089C1185.71 124.089 1154.79 114.138 1154.79 101.863V91.6768H1162.46C1173.94 84.5273 1197.12 79.6387 1223.86 79.6387Z" fill="url(#paint9_linear_3225_2700)"/>
<ellipse cx="1223.86" cy="91.678" rx="69.0754" ry="22.2249" fill="#252531"/>
<ellipse cx="1815.08" cy="222.225" rx="69.0754" ry="22.2249" fill="#252531"/>
<ellipse cx="27" cy="8.5" rx="27" ry="8.5" transform="matrix(-1 0 0 1 1765 258)" fill="#252531"/>
<ellipse cx="1702.08" cy="529.225" rx="69.0754" ry="22.2249" fill="url(#paint10_linear_3225_2700)"/>
<ellipse cx="1702.08" cy="527.225" rx="69.0754" ry="22.2249" fill="#252531"/>
<path d="M798.133 244.375C835.977 244.375 868.798 251.184 885.048 261.143H895.901V275.331L895.893 275.73C895.217 292.643 851.708 306.287 798.133 306.287C744.559 306.287 701.049 292.643 700.373 275.73L700.365 275.331V261.143H711.217C727.467 251.184 760.289 244.375 798.133 244.375Z" fill="url(#paint11_linear_3225_2700)"/>
<ellipse cx="798.133" cy="261.143" rx="97.7683" ry="30.9561" fill="#252531"/>
<path d="M235.769 258.188C273.612 258.189 306.434 264.997 322.684 274.956H333.536V289.145L333.528 289.544C332.852 306.456 289.343 320.101 235.769 320.101C182.194 320.101 138.684 306.456 138.008 289.544L138 289.145V274.956H148.853C165.102 264.997 197.924 258.188 235.769 258.188Z" fill="url(#paint12_linear_3225_2700)"/>
<ellipse cx="235.768" cy="274.956" rx="97.7683" ry="30.9561" fill="#252531"/>
<path d="M1592.54 22.7266C1652.91 22.7266 1705.28 33.6337 1731.2 49.5869H1748.51V72.3135C1748.51 99.6996 1678.68 121.9 1592.54 121.9C1506.4 121.9 1436.57 99.7002 1436.57 72.3145V49.5869H1453.88C1479.8 33.6337 1532.16 22.7266 1592.54 22.7266Z" fill="url(#paint13_linear_3225_2700)"/>
<ellipse cx="1592.54" cy="49.587" rx="155.974" ry="49.587" fill="#252531"/>
<defs>
<linearGradient id="paint0_linear_3225_2700" x1="591.165" y1="206.903" x2="465.583" y2="150.738" gradientUnits="userSpaceOnUse">
<stop stop-color="#131422"/>
<stop offset="1" stop-color="#251D2C"/>
</linearGradient>
<linearGradient id="paint1_linear_3225_2700" x1="1299.05" y1="68.9446" x2="962.025" y2="-72.71" gradientUnits="userSpaceOnUse">
<stop stop-color="#131422"/>
<stop offset="1" stop-color="#251D2C"/>
</linearGradient>
<linearGradient id="paint2_linear_3225_2700" x1="861.956" y1="47.4263" x2="575.269" y2="-70.7486" gradientUnits="userSpaceOnUse">
<stop stop-color="#131422"/>
<stop offset="1" stop-color="#251D2C"/>
</linearGradient>
<linearGradient id="paint3_linear_3225_2700" x1="842.232" y1="253.095" x2="483.592" y2="100.274" gradientUnits="userSpaceOnUse">
<stop stop-color="#131422"/>
<stop offset="1" stop-color="#251D2C"/>
</linearGradient>
<linearGradient id="paint4_linear_3225_2700" x1="2166.38" y1="253.095" x2="1807.74" y2="100.274" gradientUnits="userSpaceOnUse">
<stop stop-color="#131422"/>
<stop offset="1" stop-color="#251D2C"/>
</linearGradient>
<linearGradient id="paint5_linear_3225_2700" x1="457.381" y1="423.55" x2="98.7421" y2="270.729" gradientUnits="userSpaceOnUse">
<stop stop-color="#131422"/>
<stop offset="1" stop-color="#251D2C"/>
</linearGradient>
<linearGradient id="paint6_linear_3225_2700" x1="1495.99" y1="86.4669" x2="1338.47" y2="17.8266" gradientUnits="userSpaceOnUse">
<stop stop-color="#131422"/>
<stop offset="1" stop-color="#251D2C"/>
</linearGradient>
<linearGradient id="paint7_linear_3225_2700" x1="1667.3" y1="535.343" x2="1509.78" y2="466.703" gradientUnits="userSpaceOnUse">
<stop stop-color="#131422"/>
<stop offset="1" stop-color="#251D2C"/>
</linearGradient>
<linearGradient id="paint8_linear_3225_2700" x1="1536.75" y1="191.68" x2="1302.67" y2="91.8346" gradientUnits="userSpaceOnUse">
<stop stop-color="#131422"/>
<stop offset="1" stop-color="#251D2C"/>
</linearGradient>
<linearGradient id="paint9_linear_3225_2700" x1="1303.04" y1="57.9304" x2="1185.94" y2="9.22496" gradientUnits="userSpaceOnUse">
<stop stop-color="#131422"/>
<stop offset="1" stop-color="#251D2C"/>
</linearGradient>
<linearGradient id="paint10_linear_3225_2700" x1="1781.25" y1="485.292" x2="1664.16" y2="436.586" gradientUnits="userSpaceOnUse">
<stop stop-color="#170C22"/>
<stop offset="1" stop-color="#121116"/>
</linearGradient>
<linearGradient id="paint11_linear_3225_2700" x1="910.2" y1="214.139" x2="745.258" y2="144.422" gradientUnits="userSpaceOnUse">
<stop stop-color="#131422"/>
<stop offset="1" stop-color="#251D2C"/>
</linearGradient>
<linearGradient id="paint12_linear_3225_2700" x1="347.836" y1="227.952" x2="182.893" y2="158.235" gradientUnits="userSpaceOnUse">
<stop stop-color="#131422"/>
<stop offset="1" stop-color="#251D2C"/>
</linearGradient>
<linearGradient id="paint13_linear_3225_2700" x1="1771.33" y1="-25.7073" x2="1507.86" y2="-136.615" gradientUnits="userSpaceOnUse">
<stop stop-color="#131422"/>
<stop offset="1" stop-color="#251D2C"/>
</linearGradient>
</defs>
</svg>
