<svg width="60" height="19" viewBox="0 0 60 19" fill="none" xmlns="http://www.w3.org/2000/svg">
<path d="M30 5.5C34.3896 5.5 38.347 5.94493 41.1924 6.65625C42.6188 7.01286 43.738 7.42961 44.4883 7.87305C45.272 8.3363 45.5 8.73363 45.5 9C45.5 9.26637 45.272 9.6637 44.4883 10.127C43.738 10.5704 42.6188 10.9871 41.1924 11.3438C38.347 12.0551 34.3896 12.5 30 12.5C25.6104 12.5 21.653 12.0551 18.8076 11.3438C17.3812 10.9871 16.262 10.5704 15.5117 10.127C14.728 9.6637 14.5 9.26637 14.5 9C14.5 8.73363 14.728 8.3363 15.5117 7.87305C16.262 7.42961 17.3812 7.01286 18.8076 6.65625C21.653 5.94493 25.6104 5.5 30 5.5Z" stroke="#AFCDD6"/>
<path d="M30 2.25C36.3335 2.25 42.0578 3.03135 46.1904 4.28906C48.2583 4.91842 49.9141 5.66344 51.0469 6.47852C52.1853 7.29775 52.75 8.15315 52.75 9C52.75 9.84685 52.1853 10.7022 51.0469 11.5215C49.9141 12.3366 48.2583 13.0816 46.1904 13.7109C42.0578 14.9686 36.3335 15.75 30 15.75C23.6665 15.75 17.9422 14.9686 13.8096 13.7109C11.7417 13.0816 10.0859 12.3366 8.95312 11.5215C7.81473 10.7022 7.25 9.84685 7.25 9C7.25 8.15315 7.81473 7.29775 8.95312 6.47852C10.0859 5.66344 11.7417 4.91842 13.8096 4.28906C17.9422 3.03135 23.6665 2.25 30 2.25Z" stroke="#AFCDD6" stroke-width="0.5"/>
<path d="M30 0.0996094C38.2768 0.0996094 45.7659 1.16269 51.1826 2.87793C53.8913 3.73567 56.0765 4.75478 57.582 5.88184C59.0894 7.01037 59.9004 8.23435 59.9004 9.5C59.9004 10.7656 59.0894 11.9896 57.582 13.1182C56.0765 14.2452 53.8913 15.2643 51.1826 16.1221C45.7659 17.8373 38.2768 18.9004 30 18.9004C21.7232 18.9004 14.2341 17.8373 8.81738 16.1221C6.10873 15.2643 3.92354 14.2452 2.41797 13.1182C0.910616 11.9896 0.0996094 10.7656 0.0996094 9.5C0.0996094 8.23435 0.910616 7.01037 2.41797 5.88184C3.92354 4.75478 6.10873 3.73567 8.81738 2.87793C14.2341 1.16269 21.7232 0.0996094 30 0.0996094Z" stroke="#AFCDD6" stroke-width="0.2"/>
</svg>
