<svg width="5772" height="1660" viewBox="0 0 5772 1660" fill="none" xmlns="http://www.w3.org/2000/svg">
<path d="M2112.29 643C2915.29 794 2465.49 1012.99 1483.79 957C-1374.06 794 633.292 174 1436.29 174C2239.29 174 2159.79 273 1901.29 313C1642.79 353 1309.29 492 2112.29 643Z" fill="url(#paint0_linear_3223_2696)"/>
<path d="M3294.82 92.9888C3068.83 52.1061 3116.2 -5.24104 3535.5 0.384277C4879.5 35.8843 4117 226.384 3794.5 242.884C3472 259.384 2824.5 384.384 4347.5 572.384C5870.5 760.384 6756 1777.88 3907.5 1648.38C1628.7 1544.78 2438.4 1246.11 3128.1 1109.73C3719.42 974.316 3635.03 747.425 2882.62 656.83C2130.22 566.234 1994.32 383.163 2760.47 306.164C3168.06 256.071 3520.82 133.871 3294.82 92.9888ZM3212 546C3165.06 546 3127 556.745 3127 570C3127 583.254 3165.06 594 3212 594C3258.94 593.999 3297 583.254 3297 570C3297 556.745 3258.94 546 3212 546ZM2526 442C2475.74 442 2435 455.879 2435 473C2435 490.12 2475.74 504 2526 504C2576.26 503.999 2617 490.12 2617 473C2617 455.879 2576.26 442 2526 442ZM2818.5 361C2727.1 361 2653 386.295 2653 417.5C2653 448.704 2727.1 474 2818.5 474C2909.9 474 2984 448.704 2984 417.5C2984 386.295 2909.9 361 2818.5 361Z" fill="url(#paint1_linear_3223_2696)"/>
<defs>
<linearGradient id="paint0_linear_3223_2696" x1="1438.2" y1="171.854" x2="1438.2" y2="996.595" gradientUnits="userSpaceOnUse">
<stop stop-color="#88ACBB"/>
<stop offset="1" stop-color="#C0D0D7"/>
</linearGradient>
<linearGradient id="paint1_linear_3223_2696" x1="2248" y1="-0.000976563" x2="2248" y2="1659.73" gradientUnits="userSpaceOnUse">
<stop stop-color="#88ACBB"/>
<stop offset="1" stop-color="#C0D0D7"/>
</linearGradient>
</defs>
</svg>
