<svg width="95" height="115" viewBox="0 0 95 115" fill="none" xmlns="http://www.w3.org/2000/svg">
<path d="M47.1406 40V0" stroke="url(#paint0_linear_3213_5443)" stroke-width="0.3"/>
<g opacity="0.4">
<path fill-rule="evenodd" clip-rule="evenodd" d="M47.1269 68.9892L63.1269 61.9892V94.3954L47.1269 101.989V68.9892Z" fill="url(#paint1_linear_3213_5443)"/>
<path fill-rule="evenodd" clip-rule="evenodd" d="M47.1269 68.9892L31.1269 61.9892V94.3954L47.1269 101.989V68.9892Z" fill="url(#paint2_linear_3213_5443)"/>
<path fill-rule="evenodd" clip-rule="evenodd" d="M47.1269 69L31.1269 62V94.4062L47.1269 102V69Z" fill="url(#paint3_linear_3213_5443)"/>
<path fill-rule="evenodd" clip-rule="evenodd" d="M47.1269 68.9892L63.1269 61.9892L47.1269 54.9892L31.1269 61.9892L47.1269 68.9892Z" fill="url(#paint4_linear_3213_5443)"/>
</g>
<g opacity="0.4">
<path fill-rule="evenodd" clip-rule="evenodd" d="M47.1269 64.4043L61.1269 58.1967V92.2551L47.1269 98.9892V64.4043Z" fill="url(#paint5_linear_3213_5443)"/>
<path fill-rule="evenodd" clip-rule="evenodd" d="M47.1269 64.4043L33.1269 58.1967V92.2551L47.1269 98.9892V64.4043Z" fill="url(#paint6_linear_3213_5443)"/>
<path fill-rule="evenodd" clip-rule="evenodd" d="M47.1269 64.4043L61.1269 58.1967L47.1269 51.9892L33.1269 58.1967L47.1269 64.4043Z" fill="url(#paint7_linear_3213_5443)"/>
</g>
<g opacity="0.4">
<path fill-rule="evenodd" clip-rule="evenodd" d="M47.1269 58.2345L57.1269 53.6118V78.9744L47.1269 83.9892V58.2345Z" fill="url(#paint8_linear_3213_5443)"/>
<path fill-rule="evenodd" clip-rule="evenodd" d="M47.1269 58.2345L37.1269 53.6118V78.9744L47.1269 83.9892V58.2345Z" fill="url(#paint9_linear_3213_5443)"/>
<path fill-rule="evenodd" clip-rule="evenodd" d="M47.1269 58.2345L57.1269 53.6118L47.1269 48.9892L37.1269 53.6118L47.1269 58.2345Z" fill="url(#paint10_linear_3213_5443)"/>
</g>
<g opacity="0.4">
<path fill-rule="evenodd" clip-rule="evenodd" d="M47.1269 49.4797L52.1269 47.2345V92.5534L47.1269 94.9892V49.4797Z" fill="url(#paint11_linear_3213_5443)"/>
<path fill-rule="evenodd" clip-rule="evenodd" d="M47.1269 49.4797L42.1269 47.2345V92.5534L47.1269 94.9892V49.4797Z" fill="url(#paint12_linear_3213_5443)"/>
<path fill-rule="evenodd" clip-rule="evenodd" d="M47.1269 49.4798L52.1269 47.2345L47.1269 44.9892L42.1269 47.2345L47.1269 49.4798Z" fill="url(#paint13_linear_3213_5443)"/>
</g>
<g filter="url(#filter0_d_3213_5443)">
<path fill-rule="evenodd" clip-rule="evenodd" d="M47.1269 38.9892L49.1611 39.8976V47.0084L47.1269 47.856L45.1338 47.0084V39.8976L47.1269 38.9892Z" fill="#F0F0F0"/>
</g>
<path fill-rule="evenodd" clip-rule="evenodd" d="M47.1304 23.4226L48.1406 24.0519V42.8354L47.1304 43.4226L46.1406 42.8354V24.0519L47.1304 23.4226Z" fill="url(#paint14_linear_3213_5443)"/>
<g opacity="0.7" filter="url(#filter1_d_3213_5443)">
<path d="M63.1269 90.1203L72.1269 94L47.1269 105L22.1269 94L31.1269 90.1203" stroke="white" stroke-width="0.5"/>
</g>
<g opacity="0.4" filter="url(#filter2_d_3213_5443)">
<path d="M63.1269 86.3453L80.1269 93.8843L47.1269 108.557L14.1269 93.8843L31.1269 86.3453" stroke="white" stroke-width="0.25"/>
</g>
<path opacity="0.1" d="M63.1269 81.0972L94.1269 94.3236L47.1269 114.557L0.126923 94.3236L31.1269 81.0972" stroke="white" stroke-width="0.1"/>
<path opacity="0.7" fill-rule="evenodd" clip-rule="evenodd" d="M44.1269 83.2906C44.1269 84.9991 42.3331 86.1135 40.8014 85.3567C36.7141 83.3368 34.1269 79.1725 34.1269 74.6133V71.4863C34.1269 69.8543 35.8144 68.7688 37.2995 69.4454C41.458 71.3399 44.1269 75.4886 44.1269 80.0583V83.2906Z" fill="url(#paint15_linear_3213_5443)"/>
<path opacity="0.7" fill-rule="evenodd" clip-rule="evenodd" d="M42.1269 80.8353C42.1269 81.8396 41.0795 82.5006 40.173 82.0683C37.7011 80.8896 36.1269 78.3951 36.1269 75.6566V74.0382C36.1269 73.0777 37.1135 72.4337 37.9928 72.8202C40.5049 73.9245 42.1269 76.4093 42.1269 79.1535V80.8353Z" fill="url(#paint16_linear_3213_5443)"/>
<path opacity="0.9" fill-rule="evenodd" clip-rule="evenodd" d="M40.1269 79.0574C40.1269 79.4632 39.6769 79.7074 39.3367 79.4862C38.5821 78.9955 38.1269 78.1566 38.1269 77.2566V75.8738C38.1269 75.4892 38.5465 75.2515 38.8764 75.4493C39.6522 75.9143 40.1269 76.7524 40.1269 77.6569V79.0574Z" fill="url(#paint17_linear_3213_5443)"/>
<path fill-rule="evenodd" clip-rule="evenodd" d="M23.1269 83.6L39.1269 75.6V79.3178L23.1269 86.6V83.6Z" fill="url(#paint18_linear_3213_5443)"/>
<defs>
<filter id="filter0_d_3213_5443" x="40.1338" y="31.9892" width="14.0273" height="18.8668" filterUnits="userSpaceOnUse" color-interpolation-filters="sRGB">
<feFlood flood-opacity="0" result="BackgroundImageFix"/>
<feColorMatrix in="SourceAlpha" type="matrix" values="0 0 0 0 0 0 0 0 0 0 0 0 0 0 0 0 0 0 127 0" result="hardAlpha"/>
<feOffset dy="-2"/>
<feGaussianBlur stdDeviation="2.5"/>
<feColorMatrix type="matrix" values="0 0 0 0 1 0 0 0 0 1 0 0 0 0 1 0 0 0 0.8 0"/>
<feBlend mode="normal" in2="BackgroundImageFix" result="effect1_dropShadow_3213_5443"/>
<feBlend mode="normal" in="SourceGraphic" in2="effect1_dropShadow_3213_5443" result="shape"/>
</filter>
<filter id="filter1_d_3213_5443" x="19.5008" y="87.8907" width="55.2522" height="19.3824" filterUnits="userSpaceOnUse" color-interpolation-filters="sRGB">
<feFlood flood-opacity="0" result="BackgroundImageFix"/>
<feColorMatrix in="SourceAlpha" type="matrix" values="0 0 0 0 0 0 0 0 0 0 0 0 0 0 0 0 0 0 127 0" result="hardAlpha"/>
<feOffset/>
<feGaussianBlur stdDeviation="1"/>
<feColorMatrix type="matrix" values="0 0 0 0 1 0 0 0 0 1 0 0 0 0 1 0 0 0 1 0"/>
<feBlend mode="normal" in2="BackgroundImageFix" result="effect1_dropShadow_3213_5443"/>
<feBlend mode="normal" in="SourceGraphic" in2="effect1_dropShadow_3213_5443" result="shape"/>
</filter>
<filter id="filter2_d_3213_5443" x="12.8189" y="85.231" width="68.616" height="24.4624" filterUnits="userSpaceOnUse" color-interpolation-filters="sRGB">
<feFlood flood-opacity="0" result="BackgroundImageFix"/>
<feColorMatrix in="SourceAlpha" type="matrix" values="0 0 0 0 0 0 0 0 0 0 0 0 0 0 0 0 0 0 127 0" result="hardAlpha"/>
<feOffset/>
<feGaussianBlur stdDeviation="0.5"/>
<feColorMatrix type="matrix" values="0 0 0 0 1 0 0 0 0 1 0 0 0 0 1 0 0 0 0.5 0"/>
<feBlend mode="normal" in2="BackgroundImageFix" result="effect1_dropShadow_3213_5443"/>
<feBlend mode="normal" in="SourceGraphic" in2="effect1_dropShadow_3213_5443" result="shape"/>
</filter>
<linearGradient id="paint0_linear_3213_5443" x1="46.6406" y1="0" x2="46.6406" y2="40" gradientUnits="userSpaceOnUse">
<stop stop-color="#C8C8C8" stop-opacity="0.1"/>
<stop offset="1" stop-color="#F3F3F3"/>
</linearGradient>
<linearGradient id="paint1_linear_3213_5443" x1="47.1269" y1="61.9892" x2="47.1269" y2="101.989" gradientUnits="userSpaceOnUse">
<stop stop-color="#FBFBFB"/>
<stop offset="1" stop-color="#939393"/>
</linearGradient>
<linearGradient id="paint2_linear_3213_5443" x1="47.1269" y1="61.9892" x2="47.1269" y2="101.989" gradientUnits="userSpaceOnUse">
<stop stop-color="#F0F0F0"/>
<stop offset="1" stop-color="#606060"/>
</linearGradient>
<linearGradient id="paint3_linear_3213_5443" x1="47.1269" y1="62" x2="47.1269" y2="102" gradientUnits="userSpaceOnUse">
<stop stop-color="#F0F0F0"/>
<stop offset="1" stop-color="#606060"/>
</linearGradient>
<linearGradient id="paint4_linear_3213_5443" x1="31.1269" y1="54.9892" x2="31.1269" y2="68.9892" gradientUnits="userSpaceOnUse">
<stop stop-color="#EAEAEA"/>
<stop offset="1" stop-color="white"/>
</linearGradient>
<linearGradient id="paint5_linear_3213_5443" x1="47.1269" y1="58.1967" x2="47.1269" y2="98.9892" gradientUnits="userSpaceOnUse">
<stop stop-color="#FBFBFB"/>
<stop offset="1" stop-color="#939393"/>
</linearGradient>
<linearGradient id="paint6_linear_3213_5443" x1="47.1269" y1="58.1967" x2="47.1269" y2="98.9892" gradientUnits="userSpaceOnUse">
<stop stop-color="#F0F0F0"/>
<stop offset="1" stop-color="#606060"/>
</linearGradient>
<linearGradient id="paint7_linear_3213_5443" x1="33.1269" y1="51.9892" x2="33.1269" y2="64.4043" gradientUnits="userSpaceOnUse">
<stop stop-color="#EAEAEA"/>
<stop offset="1" stop-color="white"/>
</linearGradient>
<linearGradient id="paint8_linear_3213_5443" x1="47.1269" y1="53.6118" x2="47.1269" y2="83.9892" gradientUnits="userSpaceOnUse">
<stop stop-color="#FBFBFB"/>
<stop offset="1" stop-color="#939393"/>
</linearGradient>
<linearGradient id="paint9_linear_3213_5443" x1="47.1269" y1="53.6118" x2="47.1269" y2="83.9892" gradientUnits="userSpaceOnUse">
<stop stop-color="#F0F0F0"/>
<stop offset="1" stop-color="#606060"/>
</linearGradient>
<linearGradient id="paint10_linear_3213_5443" x1="37.1269" y1="48.9892" x2="37.1269" y2="58.2345" gradientUnits="userSpaceOnUse">
<stop stop-color="#EAEAEA"/>
<stop offset="1" stop-color="white"/>
</linearGradient>
<linearGradient id="paint11_linear_3213_5443" x1="47.1269" y1="47.2345" x2="47.1269" y2="94.9892" gradientUnits="userSpaceOnUse">
<stop stop-color="#FBFBFB"/>
<stop offset="1" stop-color="#939393"/>
</linearGradient>
<linearGradient id="paint12_linear_3213_5443" x1="47.1269" y1="47.2345" x2="47.1269" y2="94.9892" gradientUnits="userSpaceOnUse">
<stop stop-color="#F0F0F0"/>
<stop offset="1" stop-color="#606060"/>
</linearGradient>
<linearGradient id="paint13_linear_3213_5443" x1="42.1269" y1="44.9892" x2="42.1269" y2="49.4798" gradientUnits="userSpaceOnUse">
<stop stop-color="#EAEAEA"/>
<stop offset="1" stop-color="white"/>
</linearGradient>
<linearGradient id="paint14_linear_3213_5443" x1="46.1406" y1="23.4226" x2="46.1406" y2="43.4226" gradientUnits="userSpaceOnUse">
<stop stop-color="#F9F9F9" stop-opacity="0.01"/>
<stop offset="1" stop-color="#F0F0F0" stop-opacity="0.6"/>
</linearGradient>
<linearGradient id="paint15_linear_3213_5443" x1="34.1269" y1="68" x2="34.1269" y2="87" gradientUnits="userSpaceOnUse">
<stop stop-color="#333333"/>
<stop offset="1" stop-color="#0A0A0A"/>
</linearGradient>
<linearGradient id="paint16_linear_3213_5443" x1="36.1269" y1="72" x2="36.1269" y2="83" gradientUnits="userSpaceOnUse">
<stop stop-color="#333333"/>
<stop offset="1" stop-color="#0A0A0A"/>
</linearGradient>
<linearGradient id="paint17_linear_3213_5443" x1="38.1269" y1="75" x2="38.1269" y2="80" gradientUnits="userSpaceOnUse">
<stop stop-color="white"/>
<stop offset="1" stop-color="#E8E8E8"/>
</linearGradient>
<linearGradient id="paint18_linear_3213_5443" x1="33.2473" y1="71.715" x2="21.7472" y2="84.0088" gradientUnits="userSpaceOnUse">
<stop stop-color="#FBFBFB" stop-opacity="0.8"/>
<stop offset="1" stop-color="#939393" stop-opacity="0.01"/>
</linearGradient>
</defs>
</svg>
